<?xml version="1.0" encoding="utf-8"?>
<!-- Generator: Adobe Illustrator 23.1.0, SVG Export Plug-In . SVG Version: 6.00 Build 0)  -->
<svg version="1.1" id="Capa_1" xmlns="http://www.w3.org/2000/svg" xmlns:xlink="http://www.w3.org/1999/xlink" x="0px" y="0px"
	 viewBox="0 0 141 35" style="enable-background:new 0 0 141 35;" xml:space="preserve">
<style type="text/css">
	.st0{fill:#ED2D6E;}
</style>
<g>
	<path class="st0" d="M15.6,28.2c5.3,0,7.9-4.9,7.9-8.7c0-3.8-2.6-8.7-8-8.7c-5.2,0-8,4.5-8,8.6C7.5,23.9,10.5,28.2,15.6,28.2z
		 M15.5,4.1c9,0,15.5,7.1,15.5,15.3c0,8.2-6.4,15.3-15.5,15.3C6.2,34.8,0,27.4,0,19.8c0-2,0.3-4.2,1.1-6.3C2.7,9.7,7.3,4.1,15.5,4.1
		z"/>
	<path class="st0" d="M32,5h7.4v11h8.4V5h7.4v29.3h-7.4V22.5h-8.4v11.7H32V5z"/>
	<path class="st0" d="M85.9,24.1h-5.5l5.5-8.1V24.1z M84.8,5L69.6,27.7h-4.7V5h-7.5v29.3h16.2l2.8-4.2h9.5v4.2h7.4V5H84.8z"/>
	<path class="st0" d="M140.2,34.2h-6.6v-6.7h6.6V34.2z M140.2,25.5h-6.6V5h6.6V25.5z"/>
	<path class="st0" d="M124,24h-5.5l5.5-8.2V24z M107.6,27.6H103V4.7h-7.5v29.5h16.1l2.8-4.3h9.5v4.3h7.4V4.7h-8.5L107.6,27.6z
		 M126,0l-1.8,2.7h7.2V0H126z"/>
</g>
</svg>
