<?xml version="1.0" encoding="utf-8"?>
<!-- Generator: Adobe Illustrator 23.1.0, SVG Export Plug-In . SVG Version: 6.00 Build 0)  -->
<svg version="1.1" id="Capa_1" xmlns="http://www.w3.org/2000/svg" xmlns:xlink="http://www.w3.org/1999/xlink" x="0px" y="0px"
	 viewBox="0 0 12 19.7" style="enable-background:new 0 0 12 19.7;" xml:space="preserve">
<style type="text/css">
	.st0{fill:#ED2D6E;}
</style>
<g>
	<path class="st0" d="M7.4,19.7H3.6c-0.4,0-0.7-0.3-0.7-0.7v-6.6H0.7c-0.4,0-0.7-0.3-0.7-0.7V8c0-0.4,0.3-0.7,0.7-0.7h2.2v-2
		c0-1.4,0.6-2.8,1.6-3.7c1-1,2.4-1.5,3.9-1.5h2.9c0.4,0,0.7,0.3,0.7,0.7v3.7c0,0.4-0.3,0.7-0.7,0.7H8.4c-0.1,0-0.1,0-0.2,0.1
		L8.1,5.4v2h3.1c0.2,0,0.4,0.1,0.6,0.3C11.9,7.8,12,8,11.9,8.2l-1,3.7c-0.1,0.3-0.4,0.5-0.7,0.5H8.1V19C8.1,19.4,7.8,19.7,7.4,19.7z
		 M4.3,18.3h2.4v-6.6C6.7,11.3,7,11,7.4,11h2.3l0.6-2.3H7.4C7,8.7,6.7,8.4,6.7,8V5.3c0-0.4,0.2-0.9,0.5-1.2s0.7-0.5,1.2-0.5h2.2V1.4
		H8.4c-1.1,0-2.1,0.4-2.9,1.1C4.7,3.3,4.3,4.3,4.3,5.3V8c0,0.4-0.3,0.7-0.7,0.7H1.4V11h2.2c0.4,0,0.7,0.3,0.7,0.7
		C4.3,11.7,4.3,18.3,4.3,18.3z"/>
</g>
</svg>
