<?xml version="1.0" encoding="utf-8"?>
<!-- Generator: Adobe Illustrator 23.1.0, SVG Export Plug-In . SVG Version: 6.00 Build 0)  -->
<svg version="1.1" id="Capa_1" xmlns="http://www.w3.org/2000/svg" xmlns:xlink="http://www.w3.org/1999/xlink" x="0px" y="0px"
	 viewBox="0 0 21.4 29.7" style="enable-background:new 0 0 21.4 29.7;" xml:space="preserve">
<style type="text/css">
	.st0{fill:#E32B6C;}
</style>
<g>
	<path class="st0" d="M9.3,11.8c-0.1-0.2-0.2-0.4-0.4-0.5c-0.2-0.1-0.4-0.1-0.6-0.1c-0.2,0-0.4,0.2-0.5,0.3
		c-0.1,0.2-0.2,0.4-0.1,0.6l0.6,2.6l0.2-0.1v0c0,0,0,0,0,0l-0.2,0.1c0,0.2,0.1,0.3,0.3,0.5c0.1,0.1,0.3,0.2,0.5,0.2l0.2,0
		c0.2,0,0.4-0.2,0.5-0.3c0.1-0.2,0.2-0.4,0.1-0.6L9.3,11.8z"/>
	<path class="st0" d="M17.2,17.8c0-0.2-0.1-0.4-0.3-0.5c-0.2-0.1-0.4-0.2-0.6-0.2c-0.2,0-0.4,0.1-0.5,0.3l-0.9,1.1
		c-0.1,0.2-0.2,0.4-0.2,0.6c0,0.2,0.1,0.4,0.3,0.5c0.1,0.1,0.2,0.1,0.3,0.1c0.1,0,0.1,0,0.2,0c0,0,0.1,0,0.1,0c0.1,0,0.2,0,0.3-0.1
		c0.1,0,0.2-0.1,0.3-0.2l0.9-1.1C17.2,18.2,17.3,18,17.2,17.8z"/>
	<path class="st0" d="M5.1,17.7c0-0.1-0.1-0.2-0.2-0.3c-0.1-0.1-0.2-0.1-0.3-0.2c-0.1,0-0.2-0.1-0.3-0.1c-0.1,0-0.2,0-0.3,0.1
		c-0.1,0-0.2,0.1-0.3,0.2c-0.1,0.1-0.1,0.2-0.2,0.3c0,0.1-0.1,0.2-0.1,0.3c0,0.1,0,0.2,0.1,0.3l0.5,1.3c0.1,0.2,0.2,0.3,0.3,0.4
		c0.1,0.1,0.3,0.1,0.5,0.1c0.1,0,0.2,0,0.3-0.1c0.1,0,0.2-0.1,0.3-0.2c0.1-0.1,0.1-0.2,0.2-0.3c0-0.1,0.1-0.2,0.1-0.3
		c0-0.1,0-0.2-0.1-0.3L5.1,17.7z"/>
	<path class="st0" d="M21.1,17.2c-0.4-2.5-1.4-4.9-2.8-7C18.1,10,18,9.9,17.9,9.9c-0.1-0.1-0.3-0.1-0.4-0.1c-0.1,0-0.3,0-0.4,0.1
		c-0.1,0.1-0.2,0.2-0.3,0.3l-0.7,1.2c0-0.3,0-0.6,0-0.9c0-1.4-0.2-2.7-0.6-4.1C13.9,1.3,9.9,0,9.9,0C9.8,0,9.6,0,9.5,0
		C9.3,0,9.2,0.1,9.1,0.2C9,0.3,8.9,0.4,8.9,0.5c0,0.1-0.1,0.3,0,0.4C8.9,1.3,9,1.8,9,2.2C9,3.4,8.6,4.3,7.3,6C6.9,6.4,6.4,7,5.8,7.6
		c-2.1,2.3-5.3,5.8-5.7,9.8C0,18,0,18.5,0,19.1c0,1.5,0.3,2.9,0.9,4.3c0.6,1.3,1.5,2.5,2.6,3.5c1.1,1,2.4,1.7,3.8,2.2
		c1.1,0.4,2.2,0.5,3.4,0.5c0.3,0,0.7,0,1,0c1.5-0.1,2.9-0.6,4.2-1.3c1.3-0.7,2.4-1.7,3.3-2.9c0.9-1.2,1.5-2.5,1.9-3.9
		C21.3,20.1,21.3,18.6,21.1,17.2z M10.5,28L10.5,28C10.4,28,10.4,28,10.5,28L10.5,28c-0.4,0-0.8-0.1-1.2-0.2c-0.4-0.2-0.7-0.4-1-0.6
		c-0.3-0.3-0.5-0.6-0.7-1S7.4,25.4,7.4,25c0-0.6,0.2-1.1,0.5-1.6l2.7-4.2l2.5,4.3c0.3,0.5,0.4,1,0.4,1.5c0,0.5-0.1,1-0.4,1.5
		c-0.3,0.5-0.6,0.8-1.1,1.1C11.5,27.9,11,28,10.5,28z M14.4,27.3c0.4-0.7,0.6-1.5,0.6-2.3c0-0.8-0.2-1.6-0.6-2.3l-3-5.2
		c-0.1-0.1-0.2-0.3-0.3-0.4C11,17.1,10.8,17,10.7,17c-0.2,0-0.3,0-0.5,0.1c-0.1,0.1-0.3,0.2-0.4,0.3l-3.3,5.1
		c-0.5,0.7-0.7,1.6-0.7,2.5l0.3,0c0,0,0,0,0,0H5.8c0,0.8,0.2,1.5,0.6,2.2c-0.8-0.4-1.5-1-2.2-1.6c-0.8-0.9-1.5-1.8-1.9-3
		c-0.4-1.1-0.7-2.3-0.6-3.5c0-0.5,0-1,0.1-1.5C2.1,14.1,5,11,7.1,8.7C7.7,8,8.2,7.4,8.5,7c1.2-1.6,2-3,2-4.8c0.7,0.5,1.4,1,1.9,1.7
		c0.7,0.9,1.3,1.9,1.6,3c0.3,1.2,0.5,2.4,0.5,3.6c0,1.4-0.1,2.8-0.4,4.1c0,0.2,0,0.4,0.1,0.5c0.1,0.2,0.2,0.3,0.4,0.4
		c0.2,0.1,0.4,0.1,0.5,0c0.2-0.1,0.3-0.2,0.4-0.3l2-3.1c0.9,1.5,1.5,3.1,1.8,4.8l0,0l0.1,0.5c0,0,0,0,0,0l0.1,0.5l0,0
		c0.1,0.4,0.1,0.8,0.1,1.2c0,1.2-0.2,2.4-0.6,3.5c-0.4,1.1-1.1,2.1-1.9,3C16.3,26.3,15.4,26.9,14.4,27.3
		C14.4,27.4,14.4,27.4,14.4,27.3z"/>
</g>
</svg>
