<?xml version="1.0" encoding="utf-8"?>
<!-- Generator: Adobe Illustrator 23.1.0, SVG Export Plug-In . SVG Version: 6.00 Build 0)  -->
<svg version="1.1" id="Capa_1" xmlns="http://www.w3.org/2000/svg" xmlns:xlink="http://www.w3.org/1999/xlink" x="0px" y="0px"
	 viewBox="0 0 19.1 19.1" style="enable-background:new 0 0 19.1 19.1;" xml:space="preserve">
<style type="text/css">
	.st0{fill:#ED2D6E;}
</style>
<g>
	<path class="st0" d="M14.8,19.1H4.2c-2.3,0-4.2-1.9-4.2-4.2V4.2C0,1.9,1.9,0,4.2,0h10.6C17.1,0,19,1.9,19,4.2v10.6
		C19.1,17.2,17.2,19.1,14.8,19.1z M4.2,1.4c-1.6,0-2.8,1.3-2.8,2.8v10.6c0,1.6,1.3,2.8,2.8,2.8h10.6c1.6,0,2.8-1.3,2.8-2.8V4.2
		c0-1.6-1.3-2.8-2.8-2.8C14.8,1.4,4.2,1.4,4.2,1.4z M9.5,14.1c-2.3,0-4.2-1.9-4.2-4.2s1.9-4.2,4.2-4.2s4.2,1.9,4.2,4.2
		S11.8,14.1,9.5,14.1z M9.5,7C7.9,7,6.7,8.3,6.7,9.8s1.3,2.8,2.8,2.8s2.8-1.3,2.8-2.8S11,7,9.5,7z M14.8,5.9c-0.4,0-0.7-0.3-0.7-0.7
		V4.5c0-0.4,0.3-0.7,0.7-0.7s0.7,0.3,0.7,0.7v0.7C15.5,5.6,15.2,5.9,14.8,5.9z"/>
</g>
</svg>
