<?xml version="1.0" encoding="utf-8"?>
<!-- Generator: Adobe Illustrator 23.1.0, SVG Export Plug-In . SVG Version: 6.00 Build 0)  -->
<svg version="1.1" id="Capa_1" xmlns="http://www.w3.org/2000/svg" xmlns:xlink="http://www.w3.org/1999/xlink" x="0px" y="0px"
	 viewBox="0 0 25 24" style="enable-background:new 0 0 25 24;" xml:space="preserve">
<style type="text/css">
	.st0{fill:#1A202C;}
</style>
<path class="st0" d="M24.2,22.2l-6.4-6.3c1.4-1.7,2.2-3.8,2.2-6.1C20,4.4,15.5,0,10,0C4.5,0,0,4.4,0,9.8s4.5,9.8,10,9.8
	c2.4,0,4.6-0.8,6.3-2.2l6.5,6.3c0.2,0.2,0.4,0.3,0.7,0.3c0.3,0,0.5-0.1,0.7-0.3C24.6,23.2,24.6,22.5,24.2,22.2z M10,17.5
	c-4.4,0-8-3.5-8-7.8S5.6,2,10,2s8,3.5,8,7.8S14.4,17.5,10,17.5z"/>
</svg>
