<?xml version="1.0" encoding="utf-8"?>
<!-- Generator: Adobe Illustrator 23.1.0, SVG Export Plug-In . SVG Version: 6.00 Build 0)  -->
<svg version="1.1" id="Capa_1" xmlns="http://www.w3.org/2000/svg" xmlns:xlink="http://www.w3.org/1999/xlink" x="0px" y="0px"
	 viewBox="0 0 21.8 18.7" style="enable-background:new 0 0 21.8 18.7;" xml:space="preserve">
<style type="text/css">
	.st0{fill:#ED2D6E;}
</style>
<path class="st0" d="M20.7,5l-8.8-4.7c-0.6-0.3-1.4-0.3-2,0L1.1,5C0.4,5.3,0,6.1,0,6.8v9.7c0,1.2,1,2.1,2.1,2.1h17.5
	c1.2,0,2.1-1,2.1-2.1V6.8C21.8,6.1,21.4,5.3,20.7,5z M10.5,1.4c0.1-0.1,0.3-0.1,0.4-0.1s0.3,0,0.4,0.1l8.8,4.7c0,0,0.1,0.1,0.1,0.1
	c-0.1,0-0.2,0-0.3,0.1l-7.8,5.9c-0.7,0.5-1.6,0.5-2.3,0L1.9,6.3C1.8,6.2,1.7,6.2,1.6,6.2c0,0,0.1-0.1,0.1-0.1L10.5,1.4z M19.7,17.4
	H2.1c-0.5,0-0.8-0.4-0.8-0.8V7.5L9,13.2c0.6,0.4,1.3,0.6,1.9,0.6s1.4-0.2,1.9-0.6l7.7-5.7v9.1C20.5,17,20.1,17.4,19.7,17.4z"/>
</svg>
