<?xml version="1.0" encoding="utf-8"?>
<!-- Generator: Adobe Illustrator 23.1.0, SVG Export Plug-In . SVG Version: 6.00 Build 0)  -->
<svg version="1.1" id="Capa_1" xmlns="http://www.w3.org/2000/svg" xmlns:xlink="http://www.w3.org/1999/xlink" x="0px" y="0px"
	 viewBox="0 0 14.6 18.7" style="enable-background:new 0 0 14.6 18.7;" xml:space="preserve">
<style type="text/css">
	.st0{fill:#ED2D6E;}
</style>
<g>
	<path class="st0" d="M0,6.7C0,8,0.4,9.3,1.2,10.4l0.1,0.1c0.3,0.3,0.7,0.3,1,0.1l0,0c0.2-0.1,0.3-0.3,0.3-0.5s0-0.4-0.1-0.6
		C1.9,8.7,1.6,7.7,1.6,6.7c0-2.8,2.6-5.1,5.7-5.1S13,3.9,13,6.7s-2.6,5.1-5.7,5.1c-0.5,0-1-0.1-1.5-0.2H5.6L7.1,6
		c0.1-0.4-0.2-0.8-0.6-0.9c-0.1,0-0.1,0-0.2,0C6,5.1,5.6,5.3,5.6,5.7l-3.2,12c-0.1,0.4,0.1,0.8,0.5,0.9H3c0.1,0,0.1,0,0.2-0.1
		c0.1-0.1,0.3-0.3,0.4-0.5c0.3-0.4,0.5-1,0.8-1.9c0.2-0.7,0.4-1.5,0.5-2C5,13.8,5,13.6,5,13.4c0-0.1,0-0.1,0-0.2l0.1-0.3L5.3,13
		c0.6,0.1,1.2,0.2,1.9,0.2c3.9,0,7.1-2.8,7.3-6.4V6.5c0-1.7-0.7-3.3-1.9-4.5c-1.3-1.2-3.2-2-5.3-2C3.3,0,0,3,0,6.7z"/>
</g>
</svg>
