<?xml version="1.0" encoding="utf-8"?>
<!-- Generator: Adobe Illustrator 23.1.0, SVG Export Plug-In . SVG Version: 6.00 Build 0)  -->
<svg version="1.1" id="Capa_1" xmlns="http://www.w3.org/2000/svg" xmlns:xlink="http://www.w3.org/1999/xlink" x="0px" y="0px"
	 viewBox="0 0 17.6 17.5" style="enable-background:new 0 0 17.6 17.5;" xml:space="preserve">
<style type="text/css">
	.st0{fill:#ED2D6E;}
</style>
<g>
	<path class="st0" d="M1,0C0.8,0,0.6,0.1,0.4,0.2C0.2,0.4,0.2,0.6,0.2,0.8c0,0.2,0.1,0.4,0.2,0.6C0.6,1.6,0.8,1.7,1,1.7
		c8.2,0,14.9,6.7,14.9,14.9c0,0.2,0.1,0.4,0.2,0.6c0.2,0.2,0.4,0.2,0.6,0.2c0.2,0,0.4-0.1,0.6-0.2c0.2-0.2,0.2-0.4,0.2-0.6
		C17.6,7.4,10.1,0,1,0z M1,7.5c-0.2,0-0.4,0.1-0.6,0.2C0.2,7.9,0.2,8.1,0.2,8.3c0,0.2,0.1,0.4,0.2,0.6C0.6,9,0.8,9.1,1,9.1
		c2,0,3.9,0.8,5.3,2.2c1.4,1.4,2.2,3.3,2.2,5.3c0,0.2,0.1,0.4,0.2,0.6c0.2,0.2,0.4,0.2,0.6,0.2c0.2,0,0.4-0.1,0.6-0.2
		c0.2-0.2,0.2-0.4,0.2-0.6c0-2.4-1-4.7-2.7-6.4C5.7,8.4,3.4,7.5,1,7.5z"/>
	<path class="st0" d="M3.5,15.6c0,1-0.8,1.8-1.8,1.8c-1,0-1.8-0.8-1.8-1.8s0.8-1.8,1.8-1.8C2.7,13.9,3.5,14.7,3.5,15.6z"/>
</g>
</svg>
