<?xml version="1.0" encoding="utf-8"?>
<!-- Generator: Adobe Illustrator 23.1.0, SVG Export Plug-In . SVG Version: 6.00 Build 0)  -->
<svg version="1.1" id="Capa_1" xmlns="http://www.w3.org/2000/svg" xmlns:xlink="http://www.w3.org/1999/xlink" x="0px" y="0px"
	 viewBox="0 0 21.3 21.3" style="enable-background:new 0 0 21.3 21.3;" xml:space="preserve">
<style type="text/css">
	.st0{fill:#ED2D6E;}
</style>
<g>
	<g>
		<g>
			<path class="st0" d="M10.6,21.3C4.8,21.3,0,16.5,0,10.6C0,4.8,4.8,0,10.6,0c5.9,0,10.6,4.8,10.6,10.6
				C21.3,16.5,16.5,21.3,10.6,21.3z M10.6,1.3c-5.1,0-9.3,4.2-9.3,9.3c0,5.1,4.2,9.3,9.3,9.3s9.3-4.2,9.3-9.3
				C19.9,5.5,15.8,1.3,10.6,1.3z"/>
		</g>
		<path class="st0" d="M14.4,15c-0.2,0-0.2,0-0.4-0.1c-2.3-1.4-5-1.4-7.6-0.9C6.2,14,6,14,5.9,14c-0.4,0-0.6-0.3-0.6-0.6
			c0-0.4,0.2-0.6,0.5-0.6c3-0.7,6.1-0.6,8.7,1c0.2,0.1,0.4,0.3,0.4,0.6S14.7,15,14.4,15L14.4,15z"/>
	</g>
	<g>
		<path class="st0" d="M16.8,8.3c-1.9-1.1-4.6-1.7-7.4-1.7c-1.6,0-3,0.2-4.3,0.6c-0.1,0-0.5,0.2-0.5,0.7c0,0.4,0.3,0.7,0.7,0.7
			c0.1,0,0.2,0,0.3-0.1l0.1,0C6.7,8,8,7.9,9.3,7.9c2.5,0,5.2,0.6,6.8,1.6c0.1,0.1,0.2,0.1,0.4,0.1c0.3,0,0.7-0.2,0.7-0.7
			C17.1,8.6,17,8.4,16.8,8.3z"/>
		<path class="st0" d="M9.1,9.6c-1.5,0-2.5,0.2-3.6,0.5c-0.3,0.1-0.5,0.3-0.5,0.7c0,0.3,0.3,0.6,0.6,0.6c0.1,0,0.2,0,0.3-0.1
			c0,0,0.1,0,0.1,0c1-0.3,2-0.4,3-0.4c2.1,0,4.2,0.5,5.8,1.5l0,0c0.1,0.1,0.2,0.1,0.4,0.1c0.3,0,0.6-0.3,0.6-0.6
			c0-0.3-0.1-0.5-0.4-0.6C13.8,10.2,11.5,9.6,9.1,9.6z"/>
	</g>
</g>
</svg>
