<?xml version="1.0" encoding="utf-8"?>
<!-- Generator: Adobe Illustrator 23.1.0, SVG Export Plug-In . SVG Version: 6.00 Build 0)  -->
<svg version="1.1" id="Capa_1" xmlns="http://www.w3.org/2000/svg" xmlns:xlink="http://www.w3.org/1999/xlink" x="0px" y="0px"
	 viewBox="0 0 22.2 22.2" style="enable-background:new 0 0 22.2 22.2;" xml:space="preserve">
<style type="text/css">
	.st0{fill:#ED2D6E;}
</style>
<g>
	<path class="st0" d="M21,6.5l-0.2-0.4c-1.8-3.7-4.9-5.7-9.2-6l-0.5,0C9,0,6.9,0.6,5,1.9c-3,2-4.6,4.9-4.9,8.5l0,0.4
		C0,12.6,0.4,14.3,1.2,16l0.2,0.4c0,0.1,0.1,0.1,0.1,0.2c0,0,0,0.1,0,0.2l0,0c-0.1,0.3-0.2,0.6-0.3,1L1.1,18l0,0
		c-0.3,1.4-0.7,2.8-1.1,4.2c2.1-0.6,3.8-1,5.4-1.4l0,0c0.1,0,0.1,0,0.2,0c0.1,0,0.2,0,0.2,0l0,0c2.1,1.1,4.4,1.5,6.7,1.1
		c3.1-0.4,5.5-1.9,7.3-4.4C22.4,14,22.8,10.3,21,6.5z M12.9,20.2c-0.7,0.1-1.3,0.2-1.9,0.2c-1.7,0-3.2-0.5-4.8-1.4
		C6.1,19,6,19,5.9,19c-0.1,0-0.1,0-0.2,0c-0.5,0.1-1,0.3-1.5,0.4c-0.5,0.1-1,0.3-1.5,0.4c0,0-0.2,0-0.2,0l-0.2,0l0.1-0.2
		c0.3-1,0.6-2,0.8-3.1l0-0.1c0-0.1,0-0.1,0-0.2c0-0.1,0-0.1-0.1-0.2l0,0c-1.1-1.7-1.6-3.6-1.4-5.6c0.2-2.7,1.3-5,3.5-6.7
		c1.8-1.4,3.8-2.1,6-2.1c0.1,0,0.2,0,0.4,0v0c4.1,0.2,7.8,3.3,8.7,7.4l0.1,0.4C21.1,14.4,17.9,19.2,12.9,20.2z"/>
	<path class="st0" d="M16.5,13.7l-0.6-0.3c-0.6-0.3-1.2-0.6-1.7-0.8c-0.1-0.1-0.2,0-0.2,0c-0.1,0-0.1,0.1-0.2,0.2l-0.1,0.1
		c-0.1,0.2-0.3,0.3-0.4,0.5l-0.1,0.1c-0.1,0.1-0.2,0.3-0.3,0.4l0,0c-0.2,0.2-0.4,0.3-0.7,0.2l0,0c-1.7-0.7-3-1.8-3.9-3.4l0,0
		c-0.1-0.1-0.1-0.2-0.1-0.3c0-0.1,0.1-0.2,0.2-0.3c0.1-0.1,0.2-0.2,0.3-0.4l0.1-0.1C8.7,9.2,8.9,9.1,9,8.9C9.1,8.8,9,8.6,9,8.5l0,0
		c-0.1-0.3-0.3-0.6-0.4-1c-0.1-0.3-0.3-0.6-0.4-1h0l0,0C8.1,6.4,8,6.2,7.9,6.1C7.8,6,7.7,6,7.5,6C7.4,6,7.3,6,7.2,6
		c-0.3,0-0.4,0.1-0.6,0.2C6.5,6.3,6.5,6.3,6.5,6.3C5.7,7.1,5.4,8.1,5.6,9.1l0,0.2l0.1,0.3c0.2,0.7,0.6,1.3,1,1.9
		c1.7,2.4,3.8,3.9,6.2,4.6c0.8,0.2,1.5,0.2,2.1,0c0.6-0.3,1-0.5,1.2-0.8c0.2-0.3,0.3-0.7,0.3-1.3C16.6,13.9,16.5,13.8,16.5,13.7
		C16.5,13.7,16.5,13.7,16.5,13.7z"/>
</g>
</svg>
