<?xml version="1.0" encoding="utf-8"?>
<!-- Generator: Adobe Illustrator 23.1.0, SVG Export Plug-In . SVG Version: 6.00 Build 0)  -->
<svg version="1.1" id="Capa_1" xmlns="http://www.w3.org/2000/svg" xmlns:xlink="http://www.w3.org/1999/xlink" x="0px" y="0px"
	 viewBox="0 0 22.4 18.5" style="enable-background:new 0 0 22.4 18.5;" xml:space="preserve">
<style type="text/css">
	.st0{fill:#ED2D6E;}
</style>
<g>
	<path class="st0" d="M20.2,0.9c-5.9-1.3-12-1.3-17.9,0C0.9,1.2,0,2.4,0,3.7v11c0,1.4,1,2.6,2.4,2.9c2.9,0.6,5.9,0.9,8.8,0.9
		c3,0,5.9-0.3,8.8-0.9c1.4-0.3,2.4-1.5,2.4-2.9v-11C22.4,2.4,21.5,1.2,20.2,0.9z M21,14.7c0,0.7-0.5,1.3-1.2,1.5
		c-5.7,1.1-11.4,1.1-17.1,0C2,16,1.5,15.4,1.5,14.7v-11c0-0.6,0.5-1.2,1.1-1.3c2.9-0.6,5.8-0.9,8.7-0.9s5.8,0.3,8.7,0.9
		c0.5,0.1,1,0.7,1,1.3V14.7z"/>
	<path class="st0" d="M9.5,5.4C9.3,5.3,9,5.3,8.8,5.4C8.5,5.6,8.4,5.8,8.4,6.1v6.3c0,0.3,0.1,0.5,0.4,0.6c0.1,0,0.2,0.1,0.3,0.1
		s0.3,0,0.4-0.1l5.2-3.1c0.2-0.1,0.4-0.4,0.4-0.6c0-0.3-0.1-0.5-0.4-0.6L9.5,5.4z M9.8,11.1V7.4l3.1,1.8L9.8,11.1z"/>
</g>
</svg>
